<svg width="109" height="12" viewBox="0 0 109 12" fill="none" xmlns="http://www.w3.org/2000/svg">
<path d="M0.245 11V0.499999H2.675V9.02H7.94V11H0.245ZM10.0477 11V0.499999H12.4777V11H10.0477ZM20.7896 11.18C19.9596 11.18 19.1946 11.05 18.4946 10.79C17.8046 10.52 17.1996 10.14 16.6796 9.65C16.1696 9.16 15.7696 8.585 15.4796 7.925C15.1996 7.265 15.0596 6.54 15.0596 5.75C15.0596 4.96 15.1996 4.235 15.4796 3.575C15.7696 2.915 16.1746 2.34 16.6946 1.85C17.2146 1.36 17.8246 0.984999 18.5246 0.724999C19.2246 0.455 19.9946 0.32 20.8346 0.32C21.7646 0.32 22.5996 0.475 23.3396 0.784999C24.0896 1.095 24.7196 1.545 25.2296 2.135L23.6696 3.575C23.2896 3.175 22.8746 2.88 22.4246 2.69C21.9746 2.49 21.4846 2.39 20.9546 2.39C20.4446 2.39 19.9796 2.47 19.5596 2.63C19.1396 2.79 18.7746 3.02 18.4646 3.32C18.1646 3.62 17.9296 3.975 17.7596 4.385C17.5996 4.795 17.5196 5.25 17.5196 5.75C17.5196 6.24 17.5996 6.69 17.7596 7.1C17.9296 7.51 18.1646 7.87 18.4646 8.18C18.7746 8.48 19.1346 8.71 19.5446 8.87C19.9646 9.03 20.4246 9.11 20.9246 9.11C21.4046 9.11 21.8696 9.035 22.3196 8.885C22.7796 8.725 23.2246 8.46 23.6546 8.09L25.0346 9.845C24.4646 10.275 23.7996 10.605 23.0396 10.835C22.2896 11.065 21.5396 11.18 20.7896 11.18ZM22.8146 9.53V5.585H25.0346V9.845L22.8146 9.53ZM35.2419 0.499999H37.6719V11H35.2419V0.499999ZM30.4719 11H28.0419V0.499999H30.4719V11ZM35.4219 6.695H30.2919V4.64H35.4219V6.695ZM43.0811 11V2.48H39.7211V0.499999H48.8711V2.48H45.5111V11H43.0811ZM58.1286 0.499999H60.5586V11H58.1286V0.499999ZM53.3586 11H50.9286V0.499999H53.3586V11ZM58.3086 6.695H53.1786V4.64H58.3086V6.695ZM68.8929 11.18C68.0629 11.18 67.2929 11.045 66.5829 10.775C65.8829 10.505 65.2729 10.125 64.7529 9.635C64.2429 9.145 63.8429 8.57 63.5529 7.91C63.2729 7.25 63.1329 6.53 63.1329 5.75C63.1329 4.97 63.2729 4.25 63.5529 3.59C63.8429 2.93 64.2479 2.355 64.7679 1.865C65.2879 1.375 65.8979 0.994999 66.5979 0.724999C67.2979 0.455 68.0579 0.32 68.8779 0.32C69.7079 0.32 70.4679 0.455 71.1579 0.724999C71.8579 0.994999 72.4629 1.375 72.9729 1.865C73.4929 2.355 73.8979 2.93 74.1879 3.59C74.4779 4.24 74.6229 4.96 74.6229 5.75C74.6229 6.53 74.4779 7.255 74.1879 7.925C73.8979 8.585 73.4929 9.16 72.9729 9.65C72.4629 10.13 71.8579 10.505 71.1579 10.775C70.4679 11.045 69.7129 11.18 68.8929 11.18ZM68.8779 9.11C69.3479 9.11 69.7779 9.03 70.1679 8.87C70.5679 8.71 70.9179 8.48 71.2179 8.18C71.5179 7.88 71.7479 7.525 71.9079 7.115C72.0779 6.705 72.1629 6.25 72.1629 5.75C72.1629 5.25 72.0779 4.795 71.9079 4.385C71.7479 3.975 71.5179 3.62 71.2179 3.32C70.9279 3.02 70.5829 2.79 70.1829 2.63C69.7829 2.47 69.3479 2.39 68.8779 2.39C68.4079 2.39 67.9729 2.47 67.5729 2.63C67.1829 2.79 66.8379 3.02 66.5379 3.32C66.2379 3.62 66.0029 3.975 65.8329 4.385C65.6729 4.795 65.5929 5.25 65.5929 5.75C65.5929 6.24 65.6729 6.695 65.8329 7.115C66.0029 7.525 66.2329 7.88 66.5229 8.18C66.8229 8.48 67.1729 8.71 67.5729 8.87C67.9729 9.03 68.4079 9.11 68.8779 9.11ZM81.8641 11.18C80.3741 11.18 79.2091 10.765 78.3691 9.935C77.5291 9.105 77.1091 7.92 77.1091 6.38V0.499999H79.5391V6.29C79.5391 7.29 79.7441 8.01 80.1541 8.45C80.5641 8.89 81.1391 9.11 81.8791 9.11C82.6191 9.11 83.1941 8.89 83.6041 8.45C84.0141 8.01 84.2191 7.29 84.2191 6.29V0.499999H86.6191V6.38C86.6191 7.92 86.1991 9.105 85.3591 9.935C84.5191 10.765 83.3541 11.18 81.8641 11.18ZM93.2204 11.18C92.3804 11.18 91.5754 11.07 90.8054 10.85C90.0354 10.62 89.4154 10.325 88.9454 9.965L89.7704 8.135C90.2204 8.455 90.7504 8.72 91.3604 8.93C91.9804 9.13 92.6054 9.23 93.2354 9.23C93.7154 9.23 94.1004 9.185 94.3904 9.095C94.6904 8.995 94.9104 8.86 95.0504 8.69C95.1904 8.52 95.2604 8.325 95.2604 8.105C95.2604 7.825 95.1504 7.605 94.9304 7.445C94.7104 7.275 94.4204 7.14 94.0604 7.04C93.7004 6.93 93.3004 6.83 92.8604 6.74C92.4304 6.64 91.9954 6.52 91.5554 6.38C91.1254 6.24 90.7304 6.06 90.3704 5.84C90.0104 5.62 89.7154 5.33 89.4854 4.97C89.2654 4.61 89.1554 4.15 89.1554 3.59C89.1554 2.99 89.3154 2.445 89.6354 1.955C89.9654 1.455 90.4554 1.06 91.1054 0.769999C91.7654 0.47 92.5904 0.32 93.5804 0.32C94.2404 0.32 94.8904 0.4 95.5304 0.559999C96.1704 0.709999 96.7354 0.939999 97.2254 1.25L96.4754 3.095C95.9854 2.815 95.4954 2.61 95.0054 2.48C94.5154 2.34 94.0354 2.27 93.5654 2.27C93.0954 2.27 92.7104 2.325 92.4104 2.435C92.1104 2.545 91.8954 2.69 91.7654 2.87C91.6354 3.04 91.5704 3.24 91.5704 3.47C91.5704 3.74 91.6804 3.96 91.9004 4.13C92.1204 4.29 92.4104 4.42 92.7704 4.52C93.1304 4.62 93.5254 4.72 93.9554 4.82C94.3954 4.92 94.8304 5.035 95.2604 5.165C95.7004 5.295 96.1004 5.47 96.4604 5.69C96.8204 5.91 97.1104 6.2 97.3304 6.56C97.5604 6.92 97.6754 7.375 97.6754 7.925C97.6754 8.515 97.5104 9.055 97.1804 9.545C96.8504 10.035 96.3554 10.43 95.6954 10.73C95.0454 11.03 94.2204 11.18 93.2204 11.18ZM102.321 4.73H107.376V6.62H102.321V4.73ZM102.501 9.05H108.216V11H100.086V0.499999H108.021V2.45H102.501V9.05Z" fill="black"/>
</svg>
