<svg width="60" height="11" viewBox="0 0 60 11" fill="none" xmlns="http://www.w3.org/2000/svg">
<path d="M0.245 11V0.499999H2.255L6.725 7.91H5.66L10.055 0.499999H12.05L12.08 11H9.8L9.785 3.995H10.205L6.695 9.89H5.6L2.015 3.995H2.525V11H0.245ZM13.9412 11L18.6212 0.499999H21.0212L25.7162 11H23.1662L19.3262 1.73H20.2862L16.4312 11H13.9412ZM16.2812 8.75L16.9262 6.905H22.3262L22.9862 8.75H16.2812ZM29.521 11V6.71L30.076 8.18L25.456 0.499999H28.036L31.576 6.395H30.091L33.646 0.499999H36.031L31.411 8.18L31.951 6.71V11H29.521ZM35.7732 11L40.4532 0.499999H42.8532L47.5482 11H44.9982L41.1582 1.73H42.1182L38.2632 11H35.7732ZM38.1132 8.75L38.7582 6.905H44.1582L44.8182 8.75H38.1132ZM51.5626 8.6L51.4276 5.795L56.4526 0.499999H59.1526L54.6226 5.375L53.2726 6.815L51.5626 8.6ZM49.3876 11V0.499999H51.8026V11H49.3876ZM56.5726 11L52.8376 6.425L54.4276 4.7L59.4076 11H56.5726Z" fill="black"/>
</svg>
